<?xml version="1.0" encoding="UTF-8"?>
<svg id="Layer_1" data-name="Layer 1" xmlns="http://www.w3.org/2000/svg" viewBox="0 0 618.5 165.48">
  <defs>
    <style>
      .cls-1 {
        font-family: UrbanistRoman-ExtraLight, Urbanist;
        font-size: 95.78px;
        font-variation-settings: 'wght' 200;
        font-weight: 200;
      }

      .cls-2 {
        letter-spacing: .24em;
      }

      .cls-3 {
        letter-spacing: .24em;
      }

      .cls-4 {
        letter-spacing: .24em;
      }

      .cls-5 {
        letter-spacing: .25em;
      }

      .cls-6 {
        letter-spacing: .25em;
      }

      .cls-7 {
        letter-spacing: .25em;
      }

      .cls-8 {
        letter-spacing: .21em;
      }

      .cls-9 {
        letter-spacing: .22em;
      }

      .cls-10 {
        letter-spacing: .18em;
      }

      .cls-11, .cls-12 {
        fill: #fff;
      }

      .cls-12 {
        font-family: MyriadPro-Regular, 'Myriad Pro';
        font-size: 21px;
      }

      .cls-13 {
        font-family: UrbanistRoman-Black, Urbanist;
        font-size: 61.14px;
        font-variation-settings: 'wght' 900;
        font-weight: 800;
      }
    </style>
  </defs>
  <g>
    <polygon class="cls-11" points="85.21 3.82 85.21 163.29 78.21 158.11 78.21 158.16 0 101.04 11.52 65.81 32.03 72.63 25.15 93.06 61.65 117.43 61.65 24.84 25.36 24.84 32.02 3.82 85.21 3.82"/>
    <polygon class="cls-11" points="162.91 68.15 113.24 68.15 113.24 145.76 89.04 163.08 89.04 3.82 141.87 3.82 155.17 42.09 131.53 41.82 125.99 25.47 113.24 25.47 113.24 47.13 155.76 47.13 162.91 68.15"/>
  </g>
  <text class="cls-11" transform="translate(174.51 51.97)"><tspan class="cls-13"><tspan x="0" y="0">JOY FOOTBALL</tspan></tspan><tspan class="cls-1"><tspan x="0" y="82.54">ACADEMY</tspan></tspan></text>
  <text class="cls-12" transform="translate(175.73 160.23)"><tspan class="cls-10" x="0" y="0">T</tspan><tspan class="cls-7" x="14.15" y="0">ouching li</tspan><tspan class="cls-4" x="153.03" y="0">v</tspan><tspan class="cls-5" x="168.12" y="0">es</tspan><tspan class="cls-8" x="197.38" y="0"> </tspan><tspan class="cls-2" x="206.18" y="0">T</tspan><tspan class="cls-6" x="221.67" y="0">h</tspan><tspan class="cls-3" x="238.54" y="0">r</tspan><tspan class="cls-7" x="250.4" y="0">ough </tspan><tspan class="cls-9" x="327.39" y="0">F</tspan><tspan class="cls-7" x="342.17" y="0">ootball</tspan></text>
</svg>